<svg xmlns="http://www.w3.org/2000/svg" xmlns:xlink="http://www.w3.org/1999/xlink" width="500" zoomAndPan="magnify" viewBox="0 0 375 374.999991" height="500" preserveAspectRatio="xMidYMid meet" version="1.0"><defs><g/></defs><path fill="#f39200" d="M 4.082031 209.109375 C 26.261719 197.613281 52.136719 194.964844 76.726562 194.359375 C 103.203125 193.679688 129.605469 195.421875 155.929688 197.839844 C 182.558594 200.335938 209.113281 203.4375 235.816406 205.328125 C 249.089844 206.234375 262.441406 206.765625 275.792969 206.839844 C 288.316406 206.914062 300.988281 206.992188 313.511719 205.480469 C 326.109375 203.964844 338.707031 200.410156 348.363281 191.714844 C 356.808594 184.074219 362.921875 172.429688 360.582031 160.855469 C 359.601562 156.015625 352.058594 157.152344 352.058594 161.992188 C 352.132812 172.277344 348.136719 180.972656 340.214844 187.480469 C 331.3125 194.816406 319.394531 197.386719 308.304688 198.746094 C 283.113281 201.699219 257.464844 200.714844 232.195312 198.972656 C 180.898438 195.34375 129.753906 186.949219 78.234375 188.765625 C 51.984375 189.597656 25.429688 192.621094 2.574219 206.539062 C 0.914062 207.519531 2.347656 210.015625 4.082031 209.109375 Z M 4.082031 209.109375 " fill-opacity="1" fill-rule="nonzero"/><path fill="#f39200" d="M 14.042969 192.320312 C 36.519531 184.074219 59.753906 182.109375 83.515625 181.957031 C 84.796875 181.957031 85.25 179.765625 83.816406 179.613281 C 60.054688 176.058594 35.3125 181.730469 13.511719 191.335938 C 13.058594 191.5625 13.4375 192.546875 14.042969 192.320312 Z M 14.042969 192.320312 " fill-opacity="1" fill-rule="nonzero"/><path fill="#f39200" d="M 339.535156 205.554688 C 348.210938 204.34375 356.207031 200.183594 362.242188 193.90625 C 365.332031 190.730469 367.972656 187.101562 369.785156 183.09375 C 371.292969 179.914062 374.085938 174.242188 371.820312 170.992188 C 370.765625 169.480469 368.953125 169.25 367.597656 170.460938 C 365.03125 172.65625 365.410156 177.648438 364.351562 180.824219 C 363.144531 184.453125 361.410156 187.855469 359.222656 190.957031 C 354.320312 197.6875 347.304688 202.605469 339.308594 204.796875 C 338.78125 204.875 339.007812 205.628906 339.535156 205.554688 Z M 339.535156 205.554688 " fill-opacity="1" fill-rule="nonzero"/><g fill="#ffffff" fill-opacity="1"><g transform="translate(57.400573, 284.061039)"><g><path d="M 100.453125 2.640625 C 83.523438 2.640625 68.601562 -0.878906 55.6875 -7.921875 C 42.78125 -14.960938 32.679688 -25.539062 25.390625 -39.65625 C 18.097656 -53.78125 14.453125 -71.195312 14.453125 -91.90625 C 14.453125 -112.601562 18.097656 -130.015625 25.390625 -144.140625 C 32.679688 -158.265625 42.78125 -168.847656 55.6875 -175.890625 C 68.601562 -182.929688 83.523438 -186.453125 100.453125 -186.453125 C 118.140625 -186.453125 133.164062 -182.992188 145.53125 -176.078125 C 157.894531 -169.160156 166.710938 -158.617188 171.984375 -144.453125 L 145.46875 -128.234375 L 142.328125 -128.359375 C 138.378906 -137.921875 133.03125 -144.773438 126.28125 -148.921875 C 119.539062 -153.066406 110.929688 -155.140625 100.453125 -155.140625 C 85.203125 -155.140625 73.300781 -150.085938 64.75 -139.984375 C 56.195312 -129.890625 51.921875 -113.863281 51.921875 -91.90625 C 51.921875 -70.03125 56.195312 -54.039062 64.75 -43.9375 C 73.300781 -33.84375 85.203125 -28.796875 100.453125 -28.796875 C 124.335938 -28.796875 138.960938 -40.398438 144.328125 -63.609375 L 147.46875 -63.609375 L 174.25 -49.65625 C 169.226562 -32.226562 160.640625 -19.15625 148.484375 -10.4375 C 136.328125 -1.71875 120.316406 2.640625 100.453125 2.640625 Z M 100.453125 2.640625 "/></g></g></g><g fill="#f39200" fill-opacity="1"><g transform="translate(220.100733, 258.819629)"><g><path d="M 37.234375 20.703125 L 21.890625 20.703125 L 21.890625 -153.109375 L 37.234375 -153.109375 Z M 37.234375 20.703125 "/></g></g></g><g fill="#f39200" fill-opacity="1"><g transform="translate(247.885419, 258.819629)"><g><path d="M 37.234375 20.703125 L 21.890625 20.703125 L 21.890625 -153.109375 L 37.234375 -153.109375 Z M 37.234375 20.703125 "/></g></g></g></svg>